<mxfile host="app.diagrams.net" modified="2021-03-10T01:17:42.104Z" agent="5.0 (Macintosh; Intel Mac OS X 10_14_6) AppleWebKit/537.36 (KHTML, like Gecko) Chrome/88.0.4324.192 Safari/537.36" etag="EWw6dDvMgER95yI9yb0e" version="14.4.6" type="github">
  <diagram id="SHKInz8q4Gab5FIeQ5hq" name="Page-1">
    <mxGraphModel dx="805" dy="833" grid="1" gridSize="10" guides="1" tooltips="1" connect="1" arrows="1" fold="1" page="1" pageScale="1" pageWidth="827" pageHeight="1169" math="0" shadow="0">
      <root>
        <mxCell id="0" />
        <mxCell id="1" parent="0" />
        <mxCell id="PvIAApElbB6APkdG3G7W-1" value="传输层" style="rounded=0;whiteSpace=wrap;html=1;direction=east;" parent="1" vertex="1">
          <mxGeometry x="340" y="290" width="120" height="60" as="geometry" />
        </mxCell>
        <mxCell id="PvIAApElbB6APkdG3G7W-2" value="网络层" style="rounded=0;whiteSpace=wrap;html=1;direction=east;" parent="1" vertex="1">
          <mxGeometry x="340" y="350" width="120" height="60" as="geometry" />
        </mxCell>
        <mxCell id="PvIAApElbB6APkdG3G7W-3" value="链路层" style="rounded=0;whiteSpace=wrap;html=1;direction=east;" parent="1" vertex="1">
          <mxGeometry x="340" y="410" width="120" height="60" as="geometry" />
        </mxCell>
        <mxCell id="PvIAApElbB6APkdG3G7W-4" value="应用层" style="rounded=0;whiteSpace=wrap;html=1;" parent="1" vertex="1">
          <mxGeometry x="340" y="200" width="120" height="90" as="geometry" />
        </mxCell>
        <mxCell id="PvIAApElbB6APkdG3G7W-18" style="edgeStyle=orthogonalEdgeStyle;rounded=0;orthogonalLoop=1;jettySize=auto;html=1;entryX=0;entryY=0.75;entryDx=0;entryDy=0;" parent="1" source="PvIAApElbB6APkdG3G7W-5" target="PvIAApElbB6APkdG3G7W-3" edge="1">
          <mxGeometry relative="1" as="geometry" />
        </mxCell>
        <mxCell id="PvIAApElbB6APkdG3G7W-5" value="物理层" style="rounded=0;whiteSpace=wrap;html=1;" parent="1" vertex="1">
          <mxGeometry x="110" y="440" width="120" height="30" as="geometry" />
        </mxCell>
        <mxCell id="PvIAApElbB6APkdG3G7W-15" style="edgeStyle=orthogonalEdgeStyle;rounded=0;orthogonalLoop=1;jettySize=auto;html=1;entryX=0;entryY=0.25;entryDx=0;entryDy=0;" parent="1" source="PvIAApElbB6APkdG3G7W-7" target="PvIAApElbB6APkdG3G7W-3" edge="1">
          <mxGeometry relative="1" as="geometry" />
        </mxCell>
        <mxCell id="PvIAApElbB6APkdG3G7W-7" value="数据链路层" style="rounded=0;whiteSpace=wrap;html=1;" parent="1" vertex="1">
          <mxGeometry x="110" y="410" width="120" height="30" as="geometry" />
        </mxCell>
        <mxCell id="PvIAApElbB6APkdG3G7W-14" style="edgeStyle=orthogonalEdgeStyle;rounded=0;orthogonalLoop=1;jettySize=auto;html=1;entryX=0;entryY=0.5;entryDx=0;entryDy=0;" parent="1" source="PvIAApElbB6APkdG3G7W-8" target="PvIAApElbB6APkdG3G7W-2" edge="1">
          <mxGeometry relative="1" as="geometry" />
        </mxCell>
        <mxCell id="PvIAApElbB6APkdG3G7W-8" value="网络层" style="rounded=0;whiteSpace=wrap;html=1;" parent="1" vertex="1">
          <mxGeometry x="110" y="350" width="120" height="60" as="geometry" />
        </mxCell>
        <mxCell id="PvIAApElbB6APkdG3G7W-9" value="传输层" style="rounded=0;whiteSpace=wrap;html=1;" parent="1" vertex="1">
          <mxGeometry x="110" y="290" width="120" height="60" as="geometry" />
        </mxCell>
        <mxCell id="PvIAApElbB6APkdG3G7W-11" value="会话层" style="rounded=0;whiteSpace=wrap;html=1;" parent="1" vertex="1">
          <mxGeometry x="110" y="260" width="120" height="30" as="geometry" />
        </mxCell>
        <mxCell id="PvIAApElbB6APkdG3G7W-12" value="表示层" style="rounded=0;whiteSpace=wrap;html=1;" parent="1" vertex="1">
          <mxGeometry x="110" y="230" width="120" height="30" as="geometry" />
        </mxCell>
        <mxCell id="PvIAApElbB6APkdG3G7W-13" value="应用层" style="rounded=0;whiteSpace=wrap;html=1;" parent="1" vertex="1">
          <mxGeometry x="110" y="200" width="120" height="30" as="geometry" />
        </mxCell>
        <mxCell id="PvIAApElbB6APkdG3G7W-29" style="edgeStyle=orthogonalEdgeStyle;rounded=0;orthogonalLoop=1;jettySize=auto;html=1;entryX=1;entryY=0.5;entryDx=0;entryDy=0;" parent="1" source="PvIAApElbB6APkdG3G7W-28" target="PvIAApElbB6APkdG3G7W-2" edge="1">
          <mxGeometry relative="1" as="geometry">
            <mxPoint x="470" y="380" as="targetPoint" />
          </mxGeometry>
        </mxCell>
        <mxCell id="PvIAApElbB6APkdG3G7W-28" value="&lt;span&gt;IP协议（网际协议）、ICMP协议（Internet互联网控制报文协议），以及IGMP协议（Internet组管理协议）&lt;/span&gt;" style="shape=document;whiteSpace=wrap;html=1;boundedLbl=1;" parent="1" vertex="1">
          <mxGeometry x="610" y="310" width="190" height="100" as="geometry" />
        </mxCell>
        <mxCell id="PvIAApElbB6APkdG3G7W-31" style="edgeStyle=orthogonalEdgeStyle;rounded=0;orthogonalLoop=1;jettySize=auto;html=1;entryX=1;entryY=0.5;entryDx=0;entryDy=0;" parent="1" source="PvIAApElbB6APkdG3G7W-30" target="PvIAApElbB6APkdG3G7W-3" edge="1">
          <mxGeometry relative="1" as="geometry" />
        </mxCell>
        <mxCell id="PvIAApElbB6APkdG3G7W-30" value="&lt;span&gt;设备驱动程序和对应的网络接口卡&lt;/span&gt;" style="shape=document;whiteSpace=wrap;html=1;boundedLbl=1;" parent="1" vertex="1">
          <mxGeometry x="610" y="440" width="120" height="80" as="geometry" />
        </mxCell>
        <mxCell id="PvIAApElbB6APkdG3G7W-33" style="edgeStyle=orthogonalEdgeStyle;rounded=0;orthogonalLoop=1;jettySize=auto;html=1;entryX=1;entryY=0.5;entryDx=0;entryDy=0;" parent="1" source="PvIAApElbB6APkdG3G7W-32" target="PvIAApElbB6APkdG3G7W-1" edge="1">
          <mxGeometry relative="1" as="geometry" />
        </mxCell>
        <mxCell id="PvIAApElbB6APkdG3G7W-32" value="&lt;span style=&quot;color: rgb(51 , 51 , 51) ; font-family: &amp;#34;pingfang sc&amp;#34; , &amp;#34;helvetica neue&amp;#34; , &amp;#34;arial&amp;#34; , &amp;#34;hiragino sans gb&amp;#34; , &amp;#34;microsoft yahei ui&amp;#34; , &amp;#34;microsoft yahei&amp;#34; , &amp;#34;simsun&amp;#34; , sans-serif ; font-size: 14px ; background-color: rgb(255 , 255 , 255)&quot;&gt;TCP（传输控制协议）和UDP（用户数据报协议）&lt;/span&gt;" style="shape=document;whiteSpace=wrap;html=1;boundedLbl=1;" parent="1" vertex="1">
          <mxGeometry x="620" y="205" width="170" height="80" as="geometry" />
        </mxCell>
        <mxCell id="PvIAApElbB6APkdG3G7W-35" style="edgeStyle=orthogonalEdgeStyle;rounded=0;orthogonalLoop=1;jettySize=auto;html=1;entryX=1;entryY=0.25;entryDx=0;entryDy=0;" parent="1" source="PvIAApElbB6APkdG3G7W-34" target="PvIAApElbB6APkdG3G7W-4" edge="1">
          <mxGeometry relative="1" as="geometry" />
        </mxCell>
        <mxCell id="PvIAApElbB6APkdG3G7W-34" value="&lt;span style=&quot;color: rgb(51 , 51 , 51) ; font-family: &amp;#34;pingfang sc&amp;#34; , &amp;#34;helvetica neue&amp;#34; , &amp;#34;arial&amp;#34; , &amp;#34;hiragino sans gb&amp;#34; , &amp;#34;microsoft yahei ui&amp;#34; , &amp;#34;microsoft yahei&amp;#34; , &amp;#34;simsun&amp;#34; , sans-serif ; font-size: 14px ; background-color: rgb(255 , 255 , 255)&quot;&gt;Telnet（远程登录）、FTP（文件传输协议）、SMTP（简单邮件传送协议）以及SNMP（简单网络管理协议）&lt;/span&gt;" style="shape=document;whiteSpace=wrap;html=1;boundedLbl=1;" parent="1" vertex="1">
          <mxGeometry x="610" y="90" width="210" height="100" as="geometry" />
        </mxCell>
        <mxCell id="mTNONjmfgAG46L4G0w5R-2" value="&lt;font style=&quot;font-size: 18px&quot;&gt;TCP/IP四层模型&lt;/font&gt;" style="text;html=1;align=center;verticalAlign=middle;resizable=0;points=[];autosize=1;" vertex="1" parent="1">
          <mxGeometry x="325" y="160" width="150" height="20" as="geometry" />
        </mxCell>
        <mxCell id="mTNONjmfgAG46L4G0w5R-3" value="&lt;font style=&quot;font-size: 18px&quot;&gt;OSI七层模型&lt;/font&gt;" style="text;html=1;align=center;verticalAlign=middle;resizable=0;points=[];autosize=1;" vertex="1" parent="1">
          <mxGeometry x="110" y="160" width="120" height="20" as="geometry" />
        </mxCell>
      </root>
    </mxGraphModel>
  </diagram>
</mxfile>
